<svg xmlns="http://www.w3.org/2000/svg" width="17.016" height="96.658"><path d="M.003 90.116c.032-6.088 3.863-11.004 8.558-10.98 4.696.025 8.476 4.98 8.444 11.068l-8.5-.044z" fill="#fff"/><path d="M17.016 90.107c0 .693-3.81 1.255-8.508 1.255-4.7 0-8.508-.562-8.508-1.255 0-.693 3.81-1.255 8.508-1.255 4.7 0 8.508.562 8.508 1.255z" fill="#1b557c"/><path d="M3.664 90.144l-.025 5.043c-.005.795.546 1.416 1.24 1.42.696 0 1.264-.625 1.268-1.42l.025-5.043h-2.51zm7.123 0l-.026 5.07c-.002.793.548 1.44 1.243 1.444.696 0 1.263-.625 1.268-1.42l.026-5.094h-2.51z" fill="#fff"/><path d="M8.815.938l-.178 78.65" fill="none" stroke="#fff" stroke-width="1.833" stroke-linecap="round"/></svg>