<svg xmlns="http://www.w3.org/2000/svg" width="32" height="32"><path fill="none" d="M0 0h32v32H0z"/><path d="M16.825 18.528c-1.31.52-2.795-.123-3.314-1.434-.518-1.31.124-2.794 1.435-3.313 1.31-.518 2.795.124 3.314 1.434.518 1.31-.124 2.795-1.435 3.314z" fill="#1b557c"/><path d="M29.833 11.603c.364 2.07-.595 3.852-2.404 4.468-.978.334-1.926.21-3.238-.424-1.21-.583-1.847-.72-3.14-.667-1.147.046-1.734.26-1.926.706-.246.57.024.802 1.272 1.084 3.106.703 5.508 2.572 6.315 4.913.293.854.32 1.163.182 2.212-.286 2.17-1.405 3.672-3.686 4.946-2.655 1.483-5.172 1.42-6.572-.165-.53-.6-.947-1.798-.895-2.574.023-.325.312-1.192.645-1.925.66-1.454.79-2.31.577-3.74-.12-.79-.193-.974-.478-1.205-.344-.268-.727-.243-.966.064-.068.088-.18.577-.25 1.086-.166 1.2-1.366 3.598-2.293 4.576-1.95 2.06-4.13 2.57-6.472 1.514-1.7-.767-2.906-2.083-3.735-4.078-.972-2.337-.903-4.005.217-5.328.525-.62.758-.78 1.53-1.043 1.138-.387 1.824-.302 3.317.41 1.24.59 2.393.77 3.7.58.994-.146 1.35-.355 1.43-.84.084-.513-.092-.628-1.35-.884-3.1-.632-6.056-3.1-6.523-5.447-.335-1.687.483-4.023 1.866-5.33C8.38 3.162 10.66 2.165 12.49 2.09c.93-.038 2.506.72 3.027 1.457.91 1.286.948 2.258.157 4.08-.637 1.47-.83 2.442-.714 3.584.104 1.023.323 1.54.727 1.713.577.25.834-.045 1.038-1.19.178-1 .79-2.533 1.395-3.488.963-1.523 2.66-2.846 4.007-3.125 2.268-.47 4.954.82 6.36 3.052.57.906 1.186 2.46 1.355 3.422zm-13.367 3.17c-.313-.122-.69-.18-.84-.13-.725.248-1.192 1.193-.946 1.917.063.157.357.437.67.614 1.15.647 2.306-.357 1.874-1.625-.15-.444-.304-.6-.758-.777z" fill="#fff"/></svg>