<svg xmlns="http://www.w3.org/2000/svg" width="20" height="20"><path fill="none" d="M0 0h20v20H0z"/><path d="M9.234 17.78c-2.357-1.493-4.134-2.926-5.5-4.433C2.365 11.84 1.493 10.4 1.06 8.935c-.42-1.423-.386-2.755.1-3.97.445-1.113 1.352-2.088 2.45-2.634.615-.304 1.127-.453 1.826-.53.616-.07 1.488.034 2.143.252.916.304 1.68.882 2.174 1.643.12.185.225.35.234.37.012.025.02.025.033 0 .01-.02.115-.185.235-.37.6-.924 1.564-1.553 2.758-1.8 1.706-.352 3.4.134 4.654 1.337.822.788 1.352 1.84 1.522 3.023.065.456.048 1.344-.034 1.818-.377 2.148-1.754 4.34-4.054 6.453-1.245 1.143-2.73 2.257-4.412 3.307-.343.214-.655.39-.693.39-.038 0-.382-.2-.763-.442z" fill="#27ae61"/></svg>