<svg xmlns="http://www.w3.org/2000/svg" width="75.373" height="24.995"><defs><clipPath id="a"><path d="M0 480h640V0H0v480z"/></clipPath></defs><path d="M7.05.085C5.67.435 4.897 1.76 5.004 3.15c.197 2.59-.495 4.11-3.417 5.457-.072.034-.143.07-.21.11-.003 0-.004.002-.005.003-.275.158-.516.36-.716.597l-.008.01C.6 9.38.554 9.44.51 9.502l-.006.008c-.088.125-.166.256-.232.394 0 .002-.002.003-.003.004-.03.066-.06.133-.085.2-.003.01-.006.016-.01.024-.024.065-.046.132-.065.2l-.008.028c-.02.068-.037.137-.05.208-.002.005-.002.01-.003.016-.015.072-.026.143-.034.216v.01c-.01.07-.013.142-.015.215v.033c0 .07 0 .14.006.21 0 .013 0 .026.002.038.005.072.014.143.025.213 0 .01.003.02.005.03.012.074.027.15.046.224.02.075.042.147.066.22l.01.028c.024.068.05.135.08.2l.016.035c.03.063.06.126.095.187l.017.028c.037.063.074.124.115.183l.006.008c.04.06.085.118.13.175.005.004.008.008.01.013.048.056.096.11.145.16l.02.02c.05.05.1.1.154.145l.018.016c.056.048.113.093.172.136l.004.003c.125.088.256.165.393.233l.01.005c.066.033.134.063.204.09.003.003.007.003.01.004.29.112.597.176.914.185h.006c.08.002.16 0 .24-.004 2.314-.097 3.91.464 4.876 1.743.244.345.46.737.646 1.182.004.01.01.02.013.03.47 1.198 1.513 2.04 2.722 2.02.196-.003.396-.026.6-.078 1.013-.257 1.75-1.044 1.99-1.99.008-.027.012-.055.018-.083.013-.06.027-.117.036-.177.013-.085.022-.17.027-.258v-.01c.014-.246-.01-.5-.066-.75-.006-.025-.008-.048-.014-.072-.35-1.38-1.682-2.21-3.066-2.045-.01 0-.022 0-.033.002-.68.05-1.282.01-1.834-.068-1.78-.253-2.97-1.42-3.355-2.844-.558-2.058.516-4.027 2.942-5.036 1.394-.58 2.343-1.87 1.97-3.335C10.074.83 8.955 0 7.728 0c-.225 0-.452.027-.678.085" fill="#1b557c"/><path d="M11.512 6.177c-.195.003-.396.027-.6.078-1.012.256-1.75 1.044-1.99 1.99-.008.027-.01.056-.018.084-.013.058-.026.115-.035.175-.015.085-.023.17-.028.258v.01c-.014.247.01.5.065.752.006.023.01.047.015.07.35 1.38 1.68 2.21 3.065 2.046.01 0 .022 0 .033-.002.682-.05 1.282-.01 1.834.068 1.78.253 2.97 1.418 3.356 2.843.558 2.057-.517 4.026-2.943 5.035-1.394.58-2.343 1.87-1.97 3.334.37 1.47 1.866 2.363 3.34 1.99 1.378-.35 2.15-1.676 2.043-3.066-.198-2.59.494-4.108 3.416-5.456.072-.034.143-.07.212-.11l.003-.002c.276-.16.517-.362.718-.598l.007-.008c.048-.058.094-.117.137-.177l.006-.008c.088-.125.166-.256.233-.394l.003-.003c.03-.065.06-.133.086-.2l.008-.024c.025-.065.047-.132.067-.2l.007-.027c.02-.07.037-.138.05-.208l.004-.017c.014-.07.024-.142.033-.215v-.008c.007-.072.01-.144.013-.217v-.033c.002-.07 0-.14-.004-.21l-.004-.038c-.005-.072-.013-.144-.024-.214 0-.01-.004-.02-.005-.03-.013-.075-.028-.15-.047-.225-.02-.074-.04-.146-.066-.22l-.01-.027c-.024-.068-.05-.135-.08-.2l-.015-.034c-.03-.065-.063-.128-.097-.19l-.016-.027c-.037-.062-.074-.124-.115-.183-.002-.003-.003-.006-.006-.008-.04-.06-.085-.118-.13-.174-.005-.004-.008-.01-.01-.014-.047-.054-.095-.108-.145-.16l-.018-.018c-.05-.05-.1-.1-.155-.145l-.018-.015c-.057-.048-.114-.093-.172-.135l-.005-.004c-.124-.09-.255-.167-.39-.235-.004 0-.007 0-.01-.003-.067-.033-.136-.063-.205-.09l-.01-.004c-.29-.112-.598-.176-.915-.185h-.005c-.08-.002-.16 0-.24.004h.002c-2.316.097-3.91-.463-4.878-1.742-.243-.346-.46-.738-.645-1.183l-.013-.028c-.462-1.186-1.487-2.023-2.677-2.023h-.045" fill="#e77e23"/><g clip-path="url(#a)" transform="matrix(.22355 0 0 -.22355 -33.524 64.91)" fill="#ecf0f1"><path d="M294.64 215.652c3.52 0 4.8 1.12 4.8 3.2 0 2.56-2.4 3.6-6.4 4.8-7.28 2.16-15.2 5.12-15.2 14.4 0 6.8 4.4 11.2 14.4 11.2 7.2 0 12.8-1.6 12.8-1.6.4-.16.72-.48.8-.8 0 0 .8-6.08.8-6.4 0-.48-.32-.8-.8-.8-.4 0-6.8 1.6-13.6 1.6-3.2 0-4.8-1.12-4.8-3.2 0-2.56 2.4-3.6 6.4-4.8 7.28-2.16 15.2-5.04 15.2-14.4 0-6.4-5.2-11.2-14.4-11.2-8.8 0-15.2 2.4-15.2 2.4-.4.16-.72.48-.8.8 0 0-.8 6.08-.8 6.4 0 .48.32.8.8.8.4 0 8.8-2.4 16-2.4M325.6 232.453h17.92c-.32 4.48-2.32 8.8-7.92 8.8-7.6 0-9.44-3.76-10-8.8m0-8c.64-5.12 2.8-8.8 10.8-8.8 6.4 0 13.2 1.6 13.6 1.6.48 0 .8-.32.8-.8 0-.24-.8-6.4-.8-6.4-.08-.4-.32-.72-.8-.8 0 0-5.6-1.6-12.8-1.6-17.2 0-20.8 9.36-20.8 20.8 0 11.44 3.68 20.72 20 20.72 11.36 0 17.68-6.32 17.68-20.72v-3.2c0-.4-.4-.8-.88-.8h-26.8zM362.318 266.934c0 .48.32.8.8.8l8 .8c.48 0 .8-.32.8-.8v-52.88c0-3.2.8-5.28.8-5.602 0-.48-.32-.8-.8-.8h-8c-.32 0-.64.32-.8.8 0 0-.8 2.4-.8 5.6v52.082zM383.678 266.934c0 .48.32.8.8.8l8 .8c.48 0 .8-.32.8-.8v-52.88c0-3.2.8-5.28.8-5.602 0-.48-.32-.8-.8-.8h-8c-.32 0-.64.32-.8.8 0 0-.8 2.4-.8 5.6v52.082zM412.798 232.453h17.92c-.32 4.48-2.32 8.8-7.92 8.8-7.6 0-9.44-3.76-10-8.8m0-8c.64-5.12 2.8-8.8 10.8-8.8 6.4 0 13.2 1.6 13.6 1.6.48 0 .8-.32.8-.8 0-.24-.8-6.4-.8-6.4-.08-.4-.32-.72-.8-.8 0 0-5.6-1.6-12.8-1.6-17.2 0-20.8 9.36-20.8 20.8 0 11.44 3.68 20.72 20 20.72 11.36 0 17.68-6.32 17.68-20.72v-3.2c0-.4-.4-.8-.88-.8h-26.8zM467.118 215.652c8 0 10.4 4.8 10.4 12.8s-2.4 12.8-10.4 12.8-10.4-4.8-10.4-12.8 2.4-12.8 10.4-12.8m0 33.6c12 0 20-6.4 20-20.8s-8-20.8-20-20.8-20 6.4-20 20.8 8 20.8 20 20.8"/></g></svg>