<svg xmlns="http://www.w3.org/2000/svg" width="350" height="350"><path fill="none" d="M0 0h350v350H0z"/><path d="M338.312 201.06c0 64.16-68.607 116.17-153.24 116.17-84.63 0-153.237-52.01-153.237-116.17h153.238z" fill="#297fb8"/><path d="M338.508 201.02c0 5.906-68.65 10.694-153.333 10.694-84.684 0-153.334-4.788-153.334-10.694 0-5.905 68.65-10.693 153.335-10.693 84.683 0 153.333 4.788 153.333 10.693z" fill="#1b557c"/><path d="M80.19 200.173l-9.365-6.284c3.412-.278 6.603-.5 9.574-.666z" fill="#113751"/><path d="M71.678 46.024l47.988-28.567 50.35 28.567-9.834 153.04-79.326.13z" fill="#fff" stroke="#fff" stroke-width="2.295" stroke-linejoin="round"/><path d="M160.636 71.702c2.36.43 3.925 2.69 3.495 5.05-.43 2.36-2.69 3.925-5.05 3.495l.778-4.272zM154.84 168.355c2.36.43 3.926 2.69 3.497 5.05-.43 2.36-2.69 3.925-5.05 3.496l.777-4.272zM99.385 125.252c0 2.113-1.712 3.825-3.824 3.825-2.11 0-3.824-1.712-3.824-3.825 0-2.112 1.713-3.824 3.825-3.824 2.113 0 3.825 1.712 3.825 3.824z" fill="#1b557c"/><path d="M75.598 43.678L53.964 55.806M176.51 49.29l-14.664-7.802" fill="none" stroke="#fff" stroke-width="2.295"/><path d="M168.036 17.13L133.93 28.91" fill="none" stroke="#fff" stroke-width="4.984"/><path d="M165.845 19.006l-7.867 21.634" fill="none" stroke="#fff" stroke-width=".918"/><path d="M81.586 52.276l6.884 140.622 63.92.328L161.24 49z" fill="none" stroke="#1b557c" stroke-width="2.295" stroke-linejoin="round"/><path d="M288.53 199.126s5.697.94 8.56.8c3.07-.152 5.435-1.812 11.18-2.33 4.85-.44 11.313 1.723 18.022 3.162 2.44.523 4.767.647 6.395.942 1.963.357 3.1 1.005 3.1 1.005" fill="none" stroke="#113751" stroke-width="1.377"/><path d="M209.867 199.726l-11.554-9.325c3.455-.057 9.392-.04 12.378-.045z" fill="#113751"/><path d="M204.285 49.812l50.75-29.792 47.587 29.792-12.128 150.123-79.98-1.18z" fill="#fff" stroke="#fff" stroke-width="2.295" stroke-linejoin="round"/><path d="M282.144 132.35c0 2.114-1.712 3.826-3.825 3.826-2.113 0-3.825-1.712-3.825-3.825 0-2.11 1.712-3.823 3.824-3.823s3.824 1.712 3.824 3.824z" fill="#1b557c"/><path d="M214.04 56.2l4.414 136.914 66.35-.023 9.482-139.4z" fill="none" stroke="#1b557c" stroke-width="2.295" stroke-linejoin="round"/><path d="M213.714 72.51c-2.384.267-4.1 2.417-3.83 4.8.267 2.384 2.416 4.1 4.8 3.83l-.485-4.315zM216.257 153.585c-2.384.268-4.1 2.418-3.83 4.802.267 2.383 2.417 4.098 4.8 3.83l-.485-4.316z" fill="#1b557c"/><path d="M213.742 44.37l-21.634 12.128M314.613 57.092l-21.13-12.988" fill="none" stroke="#fff" stroke-width="2.295"/><path d="M291.648 185.555s3.072-.9 6.416 1.622c4.642 3.503 11.21 11.534 22.21 11.01 7.93-.377 15.99.182 15.948 5.08" fill="none" stroke="#fff" stroke-width="1.836" stroke-linecap="round"/><path d="M113.573 269.08c-3.77 16.39-19.35 25.485-19.35 25.485 5.21 2.964 10.374 5.385 15.64 7.705 7.624-5.356 11.02-13.703 15.883-19.98z" fill="#1b557c"/><path d="M127.94 279.324h115.195c5.137 0 11.894 4.62 11.894 8.728 0 4.11-6.758 6.106-11.895 6.106 0 0-22.44 7.255-55.067 7.255-32.626 0-60.128-7.255-60.128-7.255-5.1-.615-9.272-3.308-9.272-7.417 0-4.108 4.135-7.416 9.272-7.416z" fill="#1b557c"/><g fill="#1b557c"><path d="M128.158 277.398h5.526v23.967c-2.47-.155-4.09-.45-5.642-.758z"/><path d="M135.133 289.38c0 6.623-.638 11.99-1.426 11.99-.788 0-1.427-5.367-1.427-11.99 0-6.62.64-11.987 1.427-11.987.788 0 1.426 5.367 1.426 11.988z"/></g><path d="M122.822 248.488c5.136 0 9.27 4.378 9.27 9.816v72.946c0 5.438-4.134 7.873-9.27 7.873-5.137 0-9.272-2.435-9.272-7.873v-72.946c0-5.438 4.135-9.816 9.272-9.816z" fill="#fff"/><path d="M143.045 259.033c0 6.4-8.82 11.59-19.7 11.59-10.882 0-19.703-5.19-19.703-11.59 0-6.4 8.82-11.59 19.702-11.59 10.88 0 19.7 5.19 19.7 11.59z" fill="#297fb8"/><path d="M238.087 253.42c-2.864 19.557-19.623 29.632-19.884 28.718l14.398 7.746 17.38-17.792z" fill="#1b557c"/><path d="M247.382 292.25c5.136 0 9.27-1.41 9.27-6.85v-42.627c0-5.44-4.134-7.873-9.27-7.873-5.136 0-9.27 2.434-9.27 7.873v39.66c0 5.438 4.134 9.816 9.27 9.816z" fill="#fff"/><g fill="#fff"><path d="M138.43 337.714c0 2.834-6.893 5.132-15.396 5.132-8.504 0-15.397-2.298-15.397-5.132 0-2.835 6.893-5.132 15.397-5.132 8.503 0 15.396 2.297 15.396 5.132z"/><path d="M107.598 332.387h30.872v5.6h-30.872z"/><path d="M138.43 332.504c0 2.834-6.893 5.132-15.396 5.132-8.504 0-15.397-2.298-15.397-5.132 0-2.835 6.893-5.132 15.397-5.132 8.503 0 15.396 2.297 15.396 5.132z"/></g><g fill="#fff"><path d="M130.344 275.213h5.162v22.394h-5.162z"/><path d="M136.862 286.41c0 6.187-.597 11.202-1.333 11.202-.737 0-1.333-5.015-1.333-11.2 0-6.188.596-11.203 1.332-11.203.735 0 1.332 5.014 1.332 11.2z"/></g><path d="M113.552 331.113l-3.77-1.23c1.123-.62 2.354-1.024 3.763-1.474zM39.828 213.72c-1.995 2.28-4.252 4.696-5.616 7.817l.28 1.162c1.864-3.487 4.126-5.698 6.367-7.907z" fill="#1b557c"/><path d="M40.29 214.184l-26.656 9.967-8.576-35.694L30.322 161.8" fill="none" stroke="#fff" stroke-width="1.836" stroke-linecap="round"/><path d="M7.09 188.304c0 .996-.808 1.803-1.803 1.803-.996 0-1.803-.807-1.803-1.803 0-.996.807-1.803 1.803-1.803.995 0 1.803.808 1.803 1.804zM15.448 223.87c0 .995-.807 1.802-1.803 1.802-.995 0-1.802-.807-1.802-1.803 0-.997.807-1.804 1.802-1.804.996 0 1.803.807 1.803 1.803z" fill="#fff" stroke="#fff" stroke-width="1.83564" stroke-linejoin="round"/><path d="M256.678 286.27c0 4.424-3.445 7.987-8.884 7.987h-111.51c-5.437 0-7.872-3.563-7.872-7.988 0-4.427 2.435-7.99 7.873-7.99h111.51c5.438 0 8.883 3.563 8.883 7.99z" fill="#fff"/><path d="M267.032 243.17c0 6.4-8.82 11.59-19.702 11.59-10.88 0-19.7-5.19-19.7-11.59 0-6.4 8.82-11.59 19.7-11.59 10.88 0 19.702 5.19 19.702 11.59z" fill="#297fb8"/></svg>