<?xml version="1.0" encoding="UTF-8" standalone="no"?>
<!-- Created with Inkscape (http://www.inkscape.org/) -->

<svg
   xmlns:dc="http://purl.org/dc/elements/1.1/"
   xmlns:cc="http://creativecommons.org/ns#"
   xmlns:rdf="http://www.w3.org/1999/02/22-rdf-syntax-ns#"
   xmlns:svg="http://www.w3.org/2000/svg"
   xmlns="http://www.w3.org/2000/svg"
   xmlns:sodipodi="http://sodipodi.sourceforge.net/DTD/sodipodi-0.dtd"
   xmlns:inkscape="http://www.inkscape.org/namespaces/inkscape"
   width="32"
   height="32"
   id="svg5748"
   version="1.1"
   inkscape:version="0.48.4 r9939"
   sodipodi:docname="fan.svg">
  <defs
     id="defs5750" />
  <sodipodi:namedview
     id="base"
     pagecolor="#ffffff"
     bordercolor="#666666"
     borderopacity="1.0"
     inkscape:pageopacity="0.0"
     inkscape:pageshadow="2"
     inkscape:zoom="2.8"
     inkscape:cx="84.563933"
     inkscape:cy="12.151316"
     inkscape:document-units="px"
     inkscape:current-layer="layer1"
     showgrid="false"
     fit-margin-top="0"
     fit-margin-left="0"
     fit-margin-right="0"
     fit-margin-bottom="0"
     inkscape:window-width="1920"
     inkscape:window-height="1018"
     inkscape:window-x="1912"
     inkscape:window-y="-8"
     inkscape:window-maximized="1" />
  <metadata
     id="metadata5753">
    <rdf:RDF>
      <cc:Work
         rdf:about="">
        <dc:format>image/svg+xml</dc:format>
        <dc:type
           rdf:resource="http://purl.org/dc/dcmitype/StillImage" />
        <dc:title />
      </cc:Work>
    </rdf:RDF>
  </metadata>
  <g
     inkscape:label="Layer 1"
     inkscape:groupmode="layer"
     id="layer1"
     transform="translate(-337.28714,-709.50357)">
    <g
       id="g2987"
       transform="matrix(0.74049585,0,0,0.74049585,87.527414,192.42325)">
      <rect
         transform="translate(433.00143,722.5065)"
         y="-24.217216"
         x="-95.714287"
         height="43.214287"
         width="43.214287"
         id="rect2985"
         style="fill:none;stroke:none" />
      <g
         transform="matrix(1.2064409,0,0,1.2064409,215.41093,-1376.972)"
         id="g5731">
        <path
           transform="matrix(0.16664048,0.42082721,-0.42086301,0.16662631,392.71792,1585.4067)"
           d="m 97.479721,686.93951 c 0,3.48683 -2.82663,6.31346 -6.313454,6.31346 -3.486824,0 -6.313453,-2.82663 -6.313453,-6.31346 0,-3.48682 2.826629,-6.31345 6.313453,-6.31345 3.486824,0 6.313454,2.82663 6.313454,6.31345 z"
           sodipodi:ry="6.3134532"
           sodipodi:rx="6.3134532"
           sodipodi:cy="686.93951"
           sodipodi:cx="91.166267"
           id="path4266"
           style="fill:#1b557c;fill-opacity:1;stroke:none"
           sodipodi:type="arc" />
        <path
           style="fill:#ffffff;fill-opacity:1"
           d="m 134.41575,1733.1392 c 0.40701,2.3171 -0.66613,4.3118 -2.69098,5.0015 -1.09412,0.3726 -2.15577,0.2334 -3.62434,-0.4754 -1.3524,-0.6529 -2.06708,-0.8047 -3.51462,-0.7466 -1.28311,0.052 -1.94048,0.2927 -2.15521,0.7908 -0.27606,0.6398 0.0266,0.8979 1.424,1.2141 3.47667,0.787 6.16507,2.8788 7.06796,5.4991 0.32876,0.956 0.35803,1.3024 0.20372,2.4756 -0.3194,2.4291 -1.57289,4.1114 -4.12576,5.5368 -2.97126,1.6591 -5.78836,1.5881 -7.35474,-0.1853 -0.595,-0.6735 -1.06074,-2.0126 -1.00195,-2.8814 0.0254,-0.3655 0.34932,-1.3353 0.72133,-2.1557 0.73853,-1.6285 0.88612,-2.5854 0.64607,-4.1853 -0.13301,-0.8862 -0.21577,-1.0915 -0.53493,-1.3508 -0.38468,-0.3001 -0.81355,-0.2716 -1.08098,0.072 -0.0771,0.099 -0.20392,0.6458 -0.28229,1.2157 -0.1848,1.3441 -1.52863,4.0272 -2.56562,5.1226 -2.1833,2.3063 -4.62302,2.877 -7.2445,1.6948 -1.90391,-0.8586 -3.25344,-2.3322 -4.18122,-4.5657 -1.08753,-2.6153 -1.01067,-4.483 0.24267,-5.9639 0.58812,-0.695 0.84944,-0.8731 1.71332,-1.1673 1.27416,-0.4341 2.04112,-0.3394 3.71238,0.4578 1.38693,0.6614 2.6784,0.8637 4.1436,0.649 1.1112,-0.1628 1.50952,-0.3974 1.59892,-0.9415 0.0943,-0.5727 -0.10336,-0.7013 -1.51094,-0.9882 -3.47123,-0.7067 -6.77877,-3.4685 -7.30199,-6.0969 -0.37556,-1.8871 0.53947,-4.5016 2.0879,-5.9663 1.59234,-1.5064 4.1472,-2.6222 6.19465,-2.7057 1.03978,-0.042 2.80525,0.8078 3.38791,1.6315 1.01908,1.4405 1.06119,2.5279 0.17651,4.5682 -0.71302,1.6447 -0.93013,2.7332 -0.79968,4.0112 0.1168,1.1456 0.3618,1.7239 0.81349,1.9181 0.64623,0.2788 0.93383,-0.051 1.16207,-1.3325 0.19954,-1.1202 0.88531,-2.8348 1.5618,-3.9041 1.07785,-1.7039 2.97753,-3.1851 4.48461,-3.497 2.53908,-0.5252 5.54642,0.9177 7.12012,3.416 0.63855,1.0141 1.32715,2.7536 1.51642,3.8311 z m -14.96323,3.5488 c -0.35053,-0.1363 -0.77299,-0.2017 -0.93902,-0.1451 -0.81297,0.2771 -1.3358,1.3351 -1.05986,2.1451 0.0699,0.1765 0.39918,0.4892 0.75056,0.6874 1.2853,0.7245 2.5805,-0.3991 2.09665,-1.8191 -0.16905,-0.4951 -0.3401,-0.6702 -0.84833,-0.8683 z"
           id="path4268"
           inkscape:connector-curvature="0"
           sodipodi:nodetypes="ssssssssssscsccsssssssssssscssscssssscsscsc" />
      </g>
    </g>
  </g>
</svg>
